# xmcd CD database file
#
# Track frame offsets:
#	150
#	22206
#	52484
#	78018
#
# Disc length: 1334 seconds
#
# Revision: 1
# Processed by: cddbd v1.5.1PL0 Copyright (c) Steve Scherf et al.
# Submitted via: CDex 1.51
#
DISCID=30053404
DTITLE=CHEMISTRY - キミがいる
DYEAR=1900
DGENRE=Pop
TTITLE0=キミがいる
TTITLE1=Dance With Me(KOREA/JAPAN ver.)
TTITLE2=ココロノドア
TTITLE3=キミがいる(Instrumental)
EXTD=
EXTT0=
EXTT1=
EXTT2=
EXTT3=
PLAYORDER=
